<?xml version="1.0" encoding="utf-8" standalone="no"?>
<!DOCTYPE svg PUBLIC "-//W3C//DTD SVG 1.1//EN"
  "http://www.w3.org/Graphics/SVG/1.1/DTD/svg11.dtd">
<!-- Created with matplotlib (https://matplotlib.org/) -->
<svg height="288pt" version="1.1" viewBox="0 0 432 288" width="432pt" xmlns="http://www.w3.org/2000/svg" xmlns:xlink="http://www.w3.org/1999/xlink">
 <defs>
  <style type="text/css">
*{stroke-linecap:butt;stroke-linejoin:round;}
  </style>
 </defs>
 <g id="figure_1">
  <g id="patch_1">
   <path d="M 0 288 
L 432 288 
L 432 0 
L 0 0 
z
" style="fill:#ffffff;"/>
  </g>
  <g id="axes_1">
   <g id="patch_2">
    <path d="M 54 252 
L 388.8 252 
L 388.8 34.56 
L 54 34.56 
z
" style="fill:#ffffff;"/>
   </g>
   <g id="PathCollection_1">
    <defs>
     <path d="M 0 3 
C 0.795609 3 1.55874 2.683901 2.12132 2.12132 
C 2.683901 1.55874 3 0.795609 3 0 
C 3 -0.795609 2.683901 -1.55874 2.12132 -2.12132 
C 1.55874 -2.683901 0.795609 -3 0 -3 
C -0.795609 -3 -1.55874 -2.683901 -2.12132 -2.12132 
C -2.683901 -1.55874 -3 -0.795609 -3 0 
C -3 0.795609 -2.683901 1.55874 -2.12132 2.12132 
C -1.55874 2.683901 -0.795609 3 0 3 
z
" id="m50c293402a" style="stroke:#1f77b4;"/>
    </defs>
    <g clip-path="url(#p1427b5d171)">
     <use style="fill:#1f77b4;stroke:#1f77b4;" x="69.245725" xlink:href="#m50c293402a" y="242.116352"/>
     <use style="fill:#1f77b4;stroke:#1f77b4;" x="72.319549" xlink:href="#m50c293402a" y="236.1279"/>
     <use style="fill:#1f77b4;stroke:#1f77b4;" x="75.393373" xlink:href="#m50c293402a" y="230.378953"/>
     <use style="fill:#1f77b4;stroke:#1f77b4;" x="78.467196" xlink:href="#m50c293402a" y="224.864623"/>
     <use style="fill:#1f77b4;stroke:#1f77b4;" x="81.54102" xlink:href="#m50c293402a" y="219.580023"/>
     <use style="fill:#1f77b4;stroke:#1f77b4;" x="84.614844" xlink:href="#m50c293402a" y="214.520266"/>
     <use style="fill:#1f77b4;stroke:#1f77b4;" x="87.688667" xlink:href="#m50c293402a" y="209.680462"/>
     <use style="fill:#1f77b4;stroke:#1f77b4;" x="90.762491" xlink:href="#m50c293402a" y="205.055724"/>
     <use style="fill:#1f77b4;stroke:#1f77b4;" x="93.836315" xlink:href="#m50c293402a" y="200.641165"/>
     <use style="fill:#1f77b4;stroke:#1f77b4;" x="96.910139" xlink:href="#m50c293402a" y="196.431896"/>
     <use style="fill:#1f77b4;stroke:#1f77b4;" x="99.983962" xlink:href="#m50c293402a" y="192.42303"/>
     <use style="fill:#1f77b4;stroke:#1f77b4;" x="103.057786" xlink:href="#m50c293402a" y="188.609678"/>
     <use style="fill:#1f77b4;stroke:#1f77b4;" x="106.13161" xlink:href="#m50c293402a" y="184.986954"/>
     <use style="fill:#1f77b4;stroke:#1f77b4;" x="109.205434" xlink:href="#m50c293402a" y="181.549968"/>
     <use style="fill:#1f77b4;stroke:#1f77b4;" x="112.279257" xlink:href="#m50c293402a" y="178.293834"/>
     <use style="fill:#1f77b4;stroke:#1f77b4;" x="115.353081" xlink:href="#m50c293402a" y="175.213662"/>
     <use style="fill:#1f77b4;stroke:#1f77b4;" x="118.426905" xlink:href="#m50c293402a" y="172.304566"/>
     <use style="fill:#1f77b4;stroke:#1f77b4;" x="121.500729" xlink:href="#m50c293402a" y="169.561658"/>
     <use style="fill:#1f77b4;stroke:#1f77b4;" x="124.574552" xlink:href="#m50c293402a" y="166.980049"/>
     <use style="fill:#1f77b4;stroke:#1f77b4;" x="127.648376" xlink:href="#m50c293402a" y="164.554852"/>
     <use style="fill:#1f77b4;stroke:#1f77b4;" x="130.7222" xlink:href="#m50c293402a" y="162.281179"/>
     <use style="fill:#1f77b4;stroke:#1f77b4;" x="133.796024" xlink:href="#m50c293402a" y="160.154142"/>
     <use style="fill:#1f77b4;stroke:#1f77b4;" x="136.869847" xlink:href="#m50c293402a" y="158.168853"/>
     <use style="fill:#1f77b4;stroke:#1f77b4;" x="139.943671" xlink:href="#m50c293402a" y="156.320424"/>
     <use style="fill:#1f77b4;stroke:#1f77b4;" x="143.017495" xlink:href="#m50c293402a" y="154.603968"/>
     <use style="fill:#1f77b4;stroke:#1f77b4;" x="146.091318" xlink:href="#m50c293402a" y="153.014596"/>
     <use style="fill:#1f77b4;stroke:#1f77b4;" x="149.165142" xlink:href="#m50c293402a" y="151.547421"/>
     <use style="fill:#1f77b4;stroke:#1f77b4;" x="152.238966" xlink:href="#m50c293402a" y="150.197555"/>
     <use style="fill:#1f77b4;stroke:#1f77b4;" x="155.31279" xlink:href="#m50c293402a" y="148.96011"/>
     <use style="fill:#1f77b4;stroke:#1f77b4;" x="158.386613" xlink:href="#m50c293402a" y="147.830198"/>
     <use style="fill:#1f77b4;stroke:#1f77b4;" x="161.460437" xlink:href="#m50c293402a" y="146.802931"/>
     <use style="fill:#1f77b4;stroke:#1f77b4;" x="164.534261" xlink:href="#m50c293402a" y="145.873421"/>
     <use style="fill:#1f77b4;stroke:#1f77b4;" x="167.608085" xlink:href="#m50c293402a" y="145.036781"/>
     <use style="fill:#1f77b4;stroke:#1f77b4;" x="170.681908" xlink:href="#m50c293402a" y="144.288123"/>
     <use style="fill:#1f77b4;stroke:#1f77b4;" x="173.755732" xlink:href="#m50c293402a" y="143.622558"/>
     <use style="fill:#1f77b4;stroke:#1f77b4;" x="176.829556" xlink:href="#m50c293402a" y="143.035199"/>
     <use style="fill:#1f77b4;stroke:#1f77b4;" x="179.90338" xlink:href="#m50c293402a" y="142.521159"/>
     <use style="fill:#1f77b4;stroke:#1f77b4;" x="182.977203" xlink:href="#m50c293402a" y="142.075548"/>
     <use style="fill:#1f77b4;stroke:#1f77b4;" x="186.051027" xlink:href="#m50c293402a" y="141.69348"/>
     <use style="fill:#1f77b4;stroke:#1f77b4;" x="189.124851" xlink:href="#m50c293402a" y="141.370066"/>
     <use style="fill:#1f77b4;stroke:#1f77b4;" x="192.198675" xlink:href="#m50c293402a" y="141.100418"/>
     <use style="fill:#1f77b4;stroke:#1f77b4;" x="195.272498" xlink:href="#m50c293402a" y="140.87965"/>
     <use style="fill:#1f77b4;stroke:#1f77b4;" x="198.346322" xlink:href="#m50c293402a" y="140.702872"/>
     <use style="fill:#1f77b4;stroke:#1f77b4;" x="201.420146" xlink:href="#m50c293402a" y="140.565197"/>
     <use style="fill:#1f77b4;stroke:#1f77b4;" x="204.493969" xlink:href="#m50c293402a" y="140.461737"/>
     <use style="fill:#1f77b4;stroke:#1f77b4;" x="207.567793" xlink:href="#m50c293402a" y="140.387604"/>
     <use style="fill:#1f77b4;stroke:#1f77b4;" x="210.641617" xlink:href="#m50c293402a" y="140.337911"/>
     <use style="fill:#1f77b4;stroke:#1f77b4;" x="213.715441" xlink:href="#m50c293402a" y="140.307769"/>
     <use style="fill:#1f77b4;stroke:#1f77b4;" x="216.789264" xlink:href="#m50c293402a" y="140.292291"/>
     <use style="fill:#1f77b4;stroke:#1f77b4;" x="219.863088" xlink:href="#m50c293402a" y="140.286588"/>
     <use style="fill:#1f77b4;stroke:#1f77b4;" x="222.936912" xlink:href="#m50c293402a" y="140.285774"/>
     <use style="fill:#1f77b4;stroke:#1f77b4;" x="226.010736" xlink:href="#m50c293402a" y="140.284959"/>
     <use style="fill:#1f77b4;stroke:#1f77b4;" x="229.084559" xlink:href="#m50c293402a" y="140.279257"/>
     <use style="fill:#1f77b4;stroke:#1f77b4;" x="232.158383" xlink:href="#m50c293402a" y="140.263778"/>
     <use style="fill:#1f77b4;stroke:#1f77b4;" x="235.232207" xlink:href="#m50c293402a" y="140.233636"/>
     <use style="fill:#1f77b4;stroke:#1f77b4;" x="238.306031" xlink:href="#m50c293402a" y="140.183943"/>
     <use style="fill:#1f77b4;stroke:#1f77b4;" x="241.379854" xlink:href="#m50c293402a" y="140.10981"/>
     <use style="fill:#1f77b4;stroke:#1f77b4;" x="244.453678" xlink:href="#m50c293402a" y="140.006351"/>
     <use style="fill:#1f77b4;stroke:#1f77b4;" x="247.527502" xlink:href="#m50c293402a" y="139.868676"/>
     <use style="fill:#1f77b4;stroke:#1f77b4;" x="250.601325" xlink:href="#m50c293402a" y="139.691898"/>
     <use style="fill:#1f77b4;stroke:#1f77b4;" x="253.675149" xlink:href="#m50c293402a" y="139.471129"/>
     <use style="fill:#1f77b4;stroke:#1f77b4;" x="256.748973" xlink:href="#m50c293402a" y="139.201482"/>
     <use style="fill:#1f77b4;stroke:#1f77b4;" x="259.822797" xlink:href="#m50c293402a" y="138.878068"/>
     <use style="fill:#1f77b4;stroke:#1f77b4;" x="262.89662" xlink:href="#m50c293402a" y="138.495999"/>
     <use style="fill:#1f77b4;stroke:#1f77b4;" x="265.970444" xlink:href="#m50c293402a" y="138.050389"/>
     <use style="fill:#1f77b4;stroke:#1f77b4;" x="269.044268" xlink:href="#m50c293402a" y="137.536348"/>
     <use style="fill:#1f77b4;stroke:#1f77b4;" x="272.118092" xlink:href="#m50c293402a" y="136.948989"/>
     <use style="fill:#1f77b4;stroke:#1f77b4;" x="275.191915" xlink:href="#m50c293402a" y="136.283425"/>
     <use style="fill:#1f77b4;stroke:#1f77b4;" x="278.265739" xlink:href="#m50c293402a" y="135.534766"/>
     <use style="fill:#1f77b4;stroke:#1f77b4;" x="281.339563" xlink:href="#m50c293402a" y="134.698126"/>
     <use style="fill:#1f77b4;stroke:#1f77b4;" x="284.413387" xlink:href="#m50c293402a" y="133.768617"/>
     <use style="fill:#1f77b4;stroke:#1f77b4;" x="287.48721" xlink:href="#m50c293402a" y="132.74135"/>
     <use style="fill:#1f77b4;stroke:#1f77b4;" x="290.561034" xlink:href="#m50c293402a" y="131.611438"/>
     <use style="fill:#1f77b4;stroke:#1f77b4;" x="293.634858" xlink:href="#m50c293402a" y="130.373992"/>
     <use style="fill:#1f77b4;stroke:#1f77b4;" x="296.708682" xlink:href="#m50c293402a" y="129.024126"/>
     <use style="fill:#1f77b4;stroke:#1f77b4;" x="299.782505" xlink:href="#m50c293402a" y="127.556951"/>
     <use style="fill:#1f77b4;stroke:#1f77b4;" x="302.856329" xlink:href="#m50c293402a" y="125.96758"/>
     <use style="fill:#1f77b4;stroke:#1f77b4;" x="305.930153" xlink:href="#m50c293402a" y="124.251123"/>
     <use style="fill:#1f77b4;stroke:#1f77b4;" x="309.003976" xlink:href="#m50c293402a" y="122.402695"/>
     <use style="fill:#1f77b4;stroke:#1f77b4;" x="312.0778" xlink:href="#m50c293402a" y="120.417406"/>
     <use style="fill:#1f77b4;stroke:#1f77b4;" x="315.151624" xlink:href="#m50c293402a" y="118.290369"/>
     <use style="fill:#1f77b4;stroke:#1f77b4;" x="318.225448" xlink:href="#m50c293402a" y="116.016695"/>
     <use style="fill:#1f77b4;stroke:#1f77b4;" x="321.299271" xlink:href="#m50c293402a" y="113.591498"/>
     <use style="fill:#1f77b4;stroke:#1f77b4;" x="324.373095" xlink:href="#m50c293402a" y="111.00989"/>
     <use style="fill:#1f77b4;stroke:#1f77b4;" x="327.446919" xlink:href="#m50c293402a" y="108.266981"/>
     <use style="fill:#1f77b4;stroke:#1f77b4;" x="330.520743" xlink:href="#m50c293402a" y="105.357885"/>
     <use style="fill:#1f77b4;stroke:#1f77b4;" x="333.594566" xlink:href="#m50c293402a" y="102.277714"/>
     <use style="fill:#1f77b4;stroke:#1f77b4;" x="336.66839" xlink:href="#m50c293402a" y="99.021579"/>
     <use style="fill:#1f77b4;stroke:#1f77b4;" x="339.742214" xlink:href="#m50c293402a" y="95.584594"/>
     <use style="fill:#1f77b4;stroke:#1f77b4;" x="342.816038" xlink:href="#m50c293402a" y="91.961869"/>
     <use style="fill:#1f77b4;stroke:#1f77b4;" x="345.889861" xlink:href="#m50c293402a" y="88.148517"/>
     <use style="fill:#1f77b4;stroke:#1f77b4;" x="348.963685" xlink:href="#m50c293402a" y="84.139651"/>
     <use style="fill:#1f77b4;stroke:#1f77b4;" x="352.037509" xlink:href="#m50c293402a" y="79.930382"/>
     <use style="fill:#1f77b4;stroke:#1f77b4;" x="355.111333" xlink:href="#m50c293402a" y="75.515823"/>
     <use style="fill:#1f77b4;stroke:#1f77b4;" x="358.185156" xlink:href="#m50c293402a" y="70.891086"/>
     <use style="fill:#1f77b4;stroke:#1f77b4;" x="361.25898" xlink:href="#m50c293402a" y="66.051282"/>
     <use style="fill:#1f77b4;stroke:#1f77b4;" x="364.332804" xlink:href="#m50c293402a" y="60.991524"/>
     <use style="fill:#1f77b4;stroke:#1f77b4;" x="367.406627" xlink:href="#m50c293402a" y="55.706924"/>
     <use style="fill:#1f77b4;stroke:#1f77b4;" x="370.480451" xlink:href="#m50c293402a" y="50.192595"/>
     <use style="fill:#1f77b4;stroke:#1f77b4;" x="373.554275" xlink:href="#m50c293402a" y="44.443648"/>
    </g>
   </g>
   <g id="matplotlib.axis_1">
    <g id="xtick_1">
     <g id="line2d_1">
      <path clip-path="url(#p1427b5d171)" d="M 99.983962 252 
L 99.983962 34.56 
" style="fill:none;stroke:#b0b0b0;stroke-linecap:square;stroke-width:0.8;"/>
     </g>
     <g id="line2d_2">
      <defs>
       <path d="M 0 0 
L 0 3.5 
" id="md570718e6e" style="stroke:#000000;stroke-width:0.8;"/>
      </defs>
      <g>
       <use style="stroke:#000000;stroke-width:0.8;" x="99.983962" xlink:href="#md570718e6e" y="252"/>
      </g>
     </g>
     <g id="text_1">
      <!-- −40 -->
      <defs>
       <path d="M 10.59375 35.5 
L 73.1875 35.5 
L 73.1875 27.203125 
L 10.59375 27.203125 
z
" id="DejaVuSans-8722"/>
       <path d="M 37.796875 64.3125 
L 12.890625 25.390625 
L 37.796875 25.390625 
z
M 35.203125 72.90625 
L 47.609375 72.90625 
L 47.609375 25.390625 
L 58.015625 25.390625 
L 58.015625 17.1875 
L 47.609375 17.1875 
L 47.609375 0 
L 37.796875 0 
L 37.796875 17.1875 
L 4.890625 17.1875 
L 4.890625 26.703125 
z
" id="DejaVuSans-52"/>
       <path d="M 31.78125 66.40625 
Q 24.171875 66.40625 20.328125 58.90625 
Q 16.5 51.421875 16.5 36.375 
Q 16.5 21.390625 20.328125 13.890625 
Q 24.171875 6.390625 31.78125 6.390625 
Q 39.453125 6.390625 43.28125 13.890625 
Q 47.125 21.390625 47.125 36.375 
Q 47.125 51.421875 43.28125 58.90625 
Q 39.453125 66.40625 31.78125 66.40625 
z
M 31.78125 74.21875 
Q 44.046875 74.21875 50.515625 64.515625 
Q 56.984375 54.828125 56.984375 36.375 
Q 56.984375 17.96875 50.515625 8.265625 
Q 44.046875 -1.421875 31.78125 -1.421875 
Q 19.53125 -1.421875 13.0625 8.265625 
Q 6.59375 17.96875 6.59375 36.375 
Q 6.59375 54.828125 13.0625 64.515625 
Q 19.53125 74.21875 31.78125 74.21875 
z
" id="DejaVuSans-48"/>
      </defs>
      <g transform="translate(89.431619 266.598437)scale(0.1 -0.1)">
       <use xlink:href="#DejaVuSans-8722"/>
       <use x="83.789062" xlink:href="#DejaVuSans-52"/>
       <use x="147.412109" xlink:href="#DejaVuSans-48"/>
      </g>
     </g>
    </g>
    <g id="xtick_2">
     <g id="line2d_3">
      <path clip-path="url(#p1427b5d171)" d="M 161.460437 252 
L 161.460437 34.56 
" style="fill:none;stroke:#b0b0b0;stroke-linecap:square;stroke-width:0.8;"/>
     </g>
     <g id="line2d_4">
      <g>
       <use style="stroke:#000000;stroke-width:0.8;" x="161.460437" xlink:href="#md570718e6e" y="252"/>
      </g>
     </g>
     <g id="text_2">
      <!-- −20 -->
      <defs>
       <path d="M 19.1875 8.296875 
L 53.609375 8.296875 
L 53.609375 0 
L 7.328125 0 
L 7.328125 8.296875 
Q 12.9375 14.109375 22.625 23.890625 
Q 32.328125 33.6875 34.8125 36.53125 
Q 39.546875 41.84375 41.421875 45.53125 
Q 43.3125 49.21875 43.3125 52.78125 
Q 43.3125 58.59375 39.234375 62.25 
Q 35.15625 65.921875 28.609375 65.921875 
Q 23.96875 65.921875 18.8125 64.3125 
Q 13.671875 62.703125 7.8125 59.421875 
L 7.8125 69.390625 
Q 13.765625 71.78125 18.9375 73 
Q 24.125 74.21875 28.421875 74.21875 
Q 39.75 74.21875 46.484375 68.546875 
Q 53.21875 62.890625 53.21875 53.421875 
Q 53.21875 48.921875 51.53125 44.890625 
Q 49.859375 40.875 45.40625 35.40625 
Q 44.1875 33.984375 37.640625 27.21875 
Q 31.109375 20.453125 19.1875 8.296875 
z
" id="DejaVuSans-50"/>
      </defs>
      <g transform="translate(150.908093 266.598437)scale(0.1 -0.1)">
       <use xlink:href="#DejaVuSans-8722"/>
       <use x="83.789062" xlink:href="#DejaVuSans-50"/>
       <use x="147.412109" xlink:href="#DejaVuSans-48"/>
      </g>
     </g>
    </g>
    <g id="xtick_3">
     <g id="line2d_5">
      <path clip-path="url(#p1427b5d171)" d="M 222.936912 252 
L 222.936912 34.56 
" style="fill:none;stroke:#b0b0b0;stroke-linecap:square;stroke-width:0.8;"/>
     </g>
     <g id="line2d_6">
      <g>
       <use style="stroke:#000000;stroke-width:0.8;" x="222.936912" xlink:href="#md570718e6e" y="252"/>
      </g>
     </g>
     <g id="text_3">
      <!-- 0 -->
      <g transform="translate(219.755662 266.598437)scale(0.1 -0.1)">
       <use xlink:href="#DejaVuSans-48"/>
      </g>
     </g>
    </g>
    <g id="xtick_4">
     <g id="line2d_7">
      <path clip-path="url(#p1427b5d171)" d="M 284.413387 252 
L 284.413387 34.56 
" style="fill:none;stroke:#b0b0b0;stroke-linecap:square;stroke-width:0.8;"/>
     </g>
     <g id="line2d_8">
      <g>
       <use style="stroke:#000000;stroke-width:0.8;" x="284.413387" xlink:href="#md570718e6e" y="252"/>
      </g>
     </g>
     <g id="text_4">
      <!-- 20 -->
      <g transform="translate(278.050887 266.598437)scale(0.1 -0.1)">
       <use xlink:href="#DejaVuSans-50"/>
       <use x="63.623047" xlink:href="#DejaVuSans-48"/>
      </g>
     </g>
    </g>
    <g id="xtick_5">
     <g id="line2d_9">
      <path clip-path="url(#p1427b5d171)" d="M 345.889861 252 
L 345.889861 34.56 
" style="fill:none;stroke:#b0b0b0;stroke-linecap:square;stroke-width:0.8;"/>
     </g>
     <g id="line2d_10">
      <g>
       <use style="stroke:#000000;stroke-width:0.8;" x="345.889861" xlink:href="#md570718e6e" y="252"/>
      </g>
     </g>
     <g id="text_5">
      <!-- 40 -->
      <g transform="translate(339.527361 266.598437)scale(0.1 -0.1)">
       <use xlink:href="#DejaVuSans-52"/>
       <use x="63.623047" xlink:href="#DejaVuSans-48"/>
      </g>
     </g>
    </g>
    <g id="text_6">
     <!-- X -->
     <defs>
      <path d="M 6.296875 72.90625 
L 16.890625 72.90625 
L 35.015625 45.796875 
L 53.21875 72.90625 
L 63.8125 72.90625 
L 40.375 37.890625 
L 65.375 0 
L 54.78125 0 
L 34.28125 31 
L 13.625 0 
L 2.984375 0 
L 29 38.921875 
z
" id="DejaVuSans-88"/>
     </defs>
     <g transform="translate(217.975 280.276563)scale(0.1 -0.1)">
      <use xlink:href="#DejaVuSans-88"/>
     </g>
    </g>
   </g>
   <g id="matplotlib.axis_2">
    <g id="ytick_1">
     <g id="line2d_11">
      <path clip-path="url(#p1427b5d171)" d="M 54 221.750237 
L 388.8 221.750237 
" style="fill:none;stroke:#b0b0b0;stroke-linecap:square;stroke-width:0.8;"/>
     </g>
     <g id="line2d_12">
      <defs>
       <path d="M 0 0 
L -3.5 0 
" id="m16e322891c" style="stroke:#000000;stroke-width:0.8;"/>
      </defs>
      <g>
       <use style="stroke:#000000;stroke-width:0.8;" x="54" xlink:href="#m16e322891c" y="221.750237"/>
      </g>
     </g>
     <g id="text_7">
      <!-- −100000 -->
      <defs>
       <path d="M 12.40625 8.296875 
L 28.515625 8.296875 
L 28.515625 63.921875 
L 10.984375 60.40625 
L 10.984375 69.390625 
L 28.421875 72.90625 
L 38.28125 72.90625 
L 38.28125 8.296875 
L 54.390625 8.296875 
L 54.390625 0 
L 12.40625 0 
z
" id="DejaVuSans-49"/>
      </defs>
      <g transform="translate(0.445312 225.549455)scale(0.1 -0.1)">
       <use xlink:href="#DejaVuSans-8722"/>
       <use x="83.789062" xlink:href="#DejaVuSans-49"/>
       <use x="147.412109" xlink:href="#DejaVuSans-48"/>
       <use x="211.035156" xlink:href="#DejaVuSans-48"/>
       <use x="274.658203" xlink:href="#DejaVuSans-48"/>
       <use x="338.28125" xlink:href="#DejaVuSans-48"/>
       <use x="401.904297" xlink:href="#DejaVuSans-48"/>
      </g>
     </g>
    </g>
    <g id="ytick_2">
     <g id="line2d_13">
      <path clip-path="url(#p1427b5d171)" d="M 54 181.018005 
L 388.8 181.018005 
" style="fill:none;stroke:#b0b0b0;stroke-linecap:square;stroke-width:0.8;"/>
     </g>
     <g id="line2d_14">
      <g>
       <use style="stroke:#000000;stroke-width:0.8;" x="54" xlink:href="#m16e322891c" y="181.018005"/>
      </g>
     </g>
     <g id="text_8">
      <!-- −50000 -->
      <defs>
       <path d="M 10.796875 72.90625 
L 49.515625 72.90625 
L 49.515625 64.59375 
L 19.828125 64.59375 
L 19.828125 46.734375 
Q 21.96875 47.46875 24.109375 47.828125 
Q 26.265625 48.1875 28.421875 48.1875 
Q 40.625 48.1875 47.75 41.5 
Q 54.890625 34.8125 54.890625 23.390625 
Q 54.890625 11.625 47.5625 5.09375 
Q 40.234375 -1.421875 26.90625 -1.421875 
Q 22.3125 -1.421875 17.546875 -0.640625 
Q 12.796875 0.140625 7.71875 1.703125 
L 7.71875 11.625 
Q 12.109375 9.234375 16.796875 8.0625 
Q 21.484375 6.890625 26.703125 6.890625 
Q 35.15625 6.890625 40.078125 11.328125 
Q 45.015625 15.765625 45.015625 23.390625 
Q 45.015625 31 40.078125 35.4375 
Q 35.15625 39.890625 26.703125 39.890625 
Q 22.75 39.890625 18.8125 39.015625 
Q 14.890625 38.140625 10.796875 36.28125 
z
" id="DejaVuSans-53"/>
      </defs>
      <g transform="translate(6.807812 184.817224)scale(0.1 -0.1)">
       <use xlink:href="#DejaVuSans-8722"/>
       <use x="83.789062" xlink:href="#DejaVuSans-53"/>
       <use x="147.412109" xlink:href="#DejaVuSans-48"/>
       <use x="211.035156" xlink:href="#DejaVuSans-48"/>
       <use x="274.658203" xlink:href="#DejaVuSans-48"/>
       <use x="338.28125" xlink:href="#DejaVuSans-48"/>
      </g>
     </g>
    </g>
    <g id="ytick_3">
     <g id="line2d_15">
      <path clip-path="url(#p1427b5d171)" d="M 54 140.285774 
L 388.8 140.285774 
" style="fill:none;stroke:#b0b0b0;stroke-linecap:square;stroke-width:0.8;"/>
     </g>
     <g id="line2d_16">
      <g>
       <use style="stroke:#000000;stroke-width:0.8;" x="54" xlink:href="#m16e322891c" y="140.285774"/>
      </g>
     </g>
     <g id="text_9">
      <!-- 0 -->
      <g transform="translate(40.6375 144.084992)scale(0.1 -0.1)">
       <use xlink:href="#DejaVuSans-48"/>
      </g>
     </g>
    </g>
    <g id="ytick_4">
     <g id="line2d_17">
      <path clip-path="url(#p1427b5d171)" d="M 54 99.553542 
L 388.8 99.553542 
" style="fill:none;stroke:#b0b0b0;stroke-linecap:square;stroke-width:0.8;"/>
     </g>
     <g id="line2d_18">
      <g>
       <use style="stroke:#000000;stroke-width:0.8;" x="54" xlink:href="#m16e322891c" y="99.553542"/>
      </g>
     </g>
     <g id="text_10">
      <!-- 50000 -->
      <g transform="translate(15.1875 103.352761)scale(0.1 -0.1)">
       <use xlink:href="#DejaVuSans-53"/>
       <use x="63.623047" xlink:href="#DejaVuSans-48"/>
       <use x="127.246094" xlink:href="#DejaVuSans-48"/>
       <use x="190.869141" xlink:href="#DejaVuSans-48"/>
       <use x="254.492188" xlink:href="#DejaVuSans-48"/>
      </g>
     </g>
    </g>
    <g id="ytick_5">
     <g id="line2d_19">
      <path clip-path="url(#p1427b5d171)" d="M 54 58.821311 
L 388.8 58.821311 
" style="fill:none;stroke:#b0b0b0;stroke-linecap:square;stroke-width:0.8;"/>
     </g>
     <g id="line2d_20">
      <g>
       <use style="stroke:#000000;stroke-width:0.8;" x="54" xlink:href="#m16e322891c" y="58.821311"/>
      </g>
     </g>
     <g id="text_11">
      <!-- 100000 -->
      <g transform="translate(8.825 62.620529)scale(0.1 -0.1)">
       <use xlink:href="#DejaVuSans-49"/>
       <use x="63.623047" xlink:href="#DejaVuSans-48"/>
       <use x="127.246094" xlink:href="#DejaVuSans-48"/>
       <use x="190.869141" xlink:href="#DejaVuSans-48"/>
       <use x="254.492188" xlink:href="#DejaVuSans-48"/>
       <use x="318.115234" xlink:href="#DejaVuSans-48"/>
      </g>
     </g>
    </g>
    <g id="text_12">
     <!-- Y -->
     <defs>
      <path d="M -0.203125 72.90625 
L 10.40625 72.90625 
L 30.609375 42.921875 
L 50.6875 72.90625 
L 61.28125 72.90625 
L 35.5 34.71875 
L 35.5 0 
L 25.59375 0 
L 25.59375 34.71875 
z
" id="DejaVuSans-89"/>
     </defs>
     <g transform="translate(-5.634375 146.333906)rotate(-90)scale(0.1 -0.1)">
      <use xlink:href="#DejaVuSans-89"/>
     </g>
    </g>
   </g>
   <g id="patch_3">
    <path d="M 54 252 
L 54 34.56 
" style="fill:none;stroke:#000000;stroke-linecap:square;stroke-linejoin:miter;stroke-width:0.8;"/>
   </g>
   <g id="patch_4">
    <path d="M 388.8 252 
L 388.8 34.56 
" style="fill:none;stroke:#000000;stroke-linecap:square;stroke-linejoin:miter;stroke-width:0.8;"/>
   </g>
   <g id="patch_5">
    <path d="M 54 252 
L 388.8 252 
" style="fill:none;stroke:#000000;stroke-linecap:square;stroke-linejoin:miter;stroke-width:0.8;"/>
   </g>
   <g id="patch_6">
    <path d="M 54 34.56 
L 388.8 34.56 
" style="fill:none;stroke:#000000;stroke-linecap:square;stroke-linejoin:miter;stroke-width:0.8;"/>
   </g>
   <g id="text_13">
    <!-- A Graph to show the values of X^3 -->
    <defs>
     <path d="M 34.1875 63.1875 
L 20.796875 26.90625 
L 47.609375 26.90625 
z
M 28.609375 72.90625 
L 39.796875 72.90625 
L 67.578125 0 
L 57.328125 0 
L 50.6875 18.703125 
L 17.828125 18.703125 
L 11.1875 0 
L 0.78125 0 
z
" id="DejaVuSans-65"/>
     <path id="DejaVuSans-32"/>
     <path d="M 59.515625 10.40625 
L 59.515625 29.984375 
L 43.40625 29.984375 
L 43.40625 38.09375 
L 69.28125 38.09375 
L 69.28125 6.78125 
Q 63.578125 2.734375 56.6875 0.65625 
Q 49.8125 -1.421875 42 -1.421875 
Q 24.90625 -1.421875 15.25 8.5625 
Q 5.609375 18.5625 5.609375 36.375 
Q 5.609375 54.25 15.25 64.234375 
Q 24.90625 74.21875 42 74.21875 
Q 49.125 74.21875 55.546875 72.453125 
Q 61.96875 70.703125 67.390625 67.28125 
L 67.390625 56.78125 
Q 61.921875 61.421875 55.765625 63.765625 
Q 49.609375 66.109375 42.828125 66.109375 
Q 29.4375 66.109375 22.71875 58.640625 
Q 16.015625 51.171875 16.015625 36.375 
Q 16.015625 21.625 22.71875 14.15625 
Q 29.4375 6.6875 42.828125 6.6875 
Q 48.046875 6.6875 52.140625 7.59375 
Q 56.25 8.5 59.515625 10.40625 
z
" id="DejaVuSans-71"/>
     <path d="M 41.109375 46.296875 
Q 39.59375 47.171875 37.8125 47.578125 
Q 36.03125 48 33.890625 48 
Q 26.265625 48 22.1875 43.046875 
Q 18.109375 38.09375 18.109375 28.8125 
L 18.109375 0 
L 9.078125 0 
L 9.078125 54.6875 
L 18.109375 54.6875 
L 18.109375 46.1875 
Q 20.953125 51.171875 25.484375 53.578125 
Q 30.03125 56 36.53125 56 
Q 37.453125 56 38.578125 55.875 
Q 39.703125 55.765625 41.0625 55.515625 
z
" id="DejaVuSans-114"/>
     <path d="M 34.28125 27.484375 
Q 23.390625 27.484375 19.1875 25 
Q 14.984375 22.515625 14.984375 16.5 
Q 14.984375 11.71875 18.140625 8.90625 
Q 21.296875 6.109375 26.703125 6.109375 
Q 34.1875 6.109375 38.703125 11.40625 
Q 43.21875 16.703125 43.21875 25.484375 
L 43.21875 27.484375 
z
M 52.203125 31.203125 
L 52.203125 0 
L 43.21875 0 
L 43.21875 8.296875 
Q 40.140625 3.328125 35.546875 0.953125 
Q 30.953125 -1.421875 24.3125 -1.421875 
Q 15.921875 -1.421875 10.953125 3.296875 
Q 6 8.015625 6 15.921875 
Q 6 25.140625 12.171875 29.828125 
Q 18.359375 34.515625 30.609375 34.515625 
L 43.21875 34.515625 
L 43.21875 35.40625 
Q 43.21875 41.609375 39.140625 45 
Q 35.0625 48.390625 27.6875 48.390625 
Q 23 48.390625 18.546875 47.265625 
Q 14.109375 46.140625 10.015625 43.890625 
L 10.015625 52.203125 
Q 14.9375 54.109375 19.578125 55.046875 
Q 24.21875 56 28.609375 56 
Q 40.484375 56 46.34375 49.84375 
Q 52.203125 43.703125 52.203125 31.203125 
z
" id="DejaVuSans-97"/>
     <path d="M 18.109375 8.203125 
L 18.109375 -20.796875 
L 9.078125 -20.796875 
L 9.078125 54.6875 
L 18.109375 54.6875 
L 18.109375 46.390625 
Q 20.953125 51.265625 25.265625 53.625 
Q 29.59375 56 35.59375 56 
Q 45.5625 56 51.78125 48.09375 
Q 58.015625 40.1875 58.015625 27.296875 
Q 58.015625 14.40625 51.78125 6.484375 
Q 45.5625 -1.421875 35.59375 -1.421875 
Q 29.59375 -1.421875 25.265625 0.953125 
Q 20.953125 3.328125 18.109375 8.203125 
z
M 48.6875 27.296875 
Q 48.6875 37.203125 44.609375 42.84375 
Q 40.53125 48.484375 33.40625 48.484375 
Q 26.265625 48.484375 22.1875 42.84375 
Q 18.109375 37.203125 18.109375 27.296875 
Q 18.109375 17.390625 22.1875 11.75 
Q 26.265625 6.109375 33.40625 6.109375 
Q 40.53125 6.109375 44.609375 11.75 
Q 48.6875 17.390625 48.6875 27.296875 
z
" id="DejaVuSans-112"/>
     <path d="M 54.890625 33.015625 
L 54.890625 0 
L 45.90625 0 
L 45.90625 32.71875 
Q 45.90625 40.484375 42.875 44.328125 
Q 39.84375 48.1875 33.796875 48.1875 
Q 26.515625 48.1875 22.3125 43.546875 
Q 18.109375 38.921875 18.109375 30.90625 
L 18.109375 0 
L 9.078125 0 
L 9.078125 75.984375 
L 18.109375 75.984375 
L 18.109375 46.1875 
Q 21.34375 51.125 25.703125 53.5625 
Q 30.078125 56 35.796875 56 
Q 45.21875 56 50.046875 50.171875 
Q 54.890625 44.34375 54.890625 33.015625 
z
" id="DejaVuSans-104"/>
     <path d="M 18.3125 70.21875 
L 18.3125 54.6875 
L 36.8125 54.6875 
L 36.8125 47.703125 
L 18.3125 47.703125 
L 18.3125 18.015625 
Q 18.3125 11.328125 20.140625 9.421875 
Q 21.96875 7.515625 27.59375 7.515625 
L 36.8125 7.515625 
L 36.8125 0 
L 27.59375 0 
Q 17.1875 0 13.234375 3.875 
Q 9.28125 7.765625 9.28125 18.015625 
L 9.28125 47.703125 
L 2.6875 47.703125 
L 2.6875 54.6875 
L 9.28125 54.6875 
L 9.28125 70.21875 
z
" id="DejaVuSans-116"/>
     <path d="M 30.609375 48.390625 
Q 23.390625 48.390625 19.1875 42.75 
Q 14.984375 37.109375 14.984375 27.296875 
Q 14.984375 17.484375 19.15625 11.84375 
Q 23.34375 6.203125 30.609375 6.203125 
Q 37.796875 6.203125 41.984375 11.859375 
Q 46.1875 17.53125 46.1875 27.296875 
Q 46.1875 37.015625 41.984375 42.703125 
Q 37.796875 48.390625 30.609375 48.390625 
z
M 30.609375 56 
Q 42.328125 56 49.015625 48.375 
Q 55.71875 40.765625 55.71875 27.296875 
Q 55.71875 13.875 49.015625 6.21875 
Q 42.328125 -1.421875 30.609375 -1.421875 
Q 18.84375 -1.421875 12.171875 6.21875 
Q 5.515625 13.875 5.515625 27.296875 
Q 5.515625 40.765625 12.171875 48.375 
Q 18.84375 56 30.609375 56 
z
" id="DejaVuSans-111"/>
     <path d="M 44.28125 53.078125 
L 44.28125 44.578125 
Q 40.484375 46.53125 36.375 47.5 
Q 32.28125 48.484375 27.875 48.484375 
Q 21.1875 48.484375 17.84375 46.4375 
Q 14.5 44.390625 14.5 40.28125 
Q 14.5 37.15625 16.890625 35.375 
Q 19.28125 33.59375 26.515625 31.984375 
L 29.59375 31.296875 
Q 39.15625 29.25 43.1875 25.515625 
Q 47.21875 21.78125 47.21875 15.09375 
Q 47.21875 7.46875 41.1875 3.015625 
Q 35.15625 -1.421875 24.609375 -1.421875 
Q 20.21875 -1.421875 15.453125 -0.5625 
Q 10.6875 0.296875 5.421875 2 
L 5.421875 11.28125 
Q 10.40625 8.6875 15.234375 7.390625 
Q 20.0625 6.109375 24.8125 6.109375 
Q 31.15625 6.109375 34.5625 8.28125 
Q 37.984375 10.453125 37.984375 14.40625 
Q 37.984375 18.0625 35.515625 20.015625 
Q 33.0625 21.96875 24.703125 23.78125 
L 21.578125 24.515625 
Q 13.234375 26.265625 9.515625 29.90625 
Q 5.8125 33.546875 5.8125 39.890625 
Q 5.8125 47.609375 11.28125 51.796875 
Q 16.75 56 26.8125 56 
Q 31.78125 56 36.171875 55.265625 
Q 40.578125 54.546875 44.28125 53.078125 
z
" id="DejaVuSans-115"/>
     <path d="M 4.203125 54.6875 
L 13.1875 54.6875 
L 24.421875 12.015625 
L 35.59375 54.6875 
L 46.1875 54.6875 
L 57.421875 12.015625 
L 68.609375 54.6875 
L 77.59375 54.6875 
L 63.28125 0 
L 52.6875 0 
L 40.921875 44.828125 
L 29.109375 0 
L 18.5 0 
z
" id="DejaVuSans-119"/>
     <path d="M 56.203125 29.59375 
L 56.203125 25.203125 
L 14.890625 25.203125 
Q 15.484375 15.921875 20.484375 11.0625 
Q 25.484375 6.203125 34.421875 6.203125 
Q 39.59375 6.203125 44.453125 7.46875 
Q 49.3125 8.734375 54.109375 11.28125 
L 54.109375 2.78125 
Q 49.265625 0.734375 44.1875 -0.34375 
Q 39.109375 -1.421875 33.890625 -1.421875 
Q 20.796875 -1.421875 13.15625 6.1875 
Q 5.515625 13.8125 5.515625 26.8125 
Q 5.515625 40.234375 12.765625 48.109375 
Q 20.015625 56 32.328125 56 
Q 43.359375 56 49.78125 48.890625 
Q 56.203125 41.796875 56.203125 29.59375 
z
M 47.21875 32.234375 
Q 47.125 39.59375 43.09375 43.984375 
Q 39.0625 48.390625 32.421875 48.390625 
Q 24.90625 48.390625 20.390625 44.140625 
Q 15.875 39.890625 15.1875 32.171875 
z
" id="DejaVuSans-101"/>
     <path d="M 2.984375 54.6875 
L 12.5 54.6875 
L 29.59375 8.796875 
L 46.6875 54.6875 
L 56.203125 54.6875 
L 35.6875 0 
L 23.484375 0 
z
" id="DejaVuSans-118"/>
     <path d="M 9.421875 75.984375 
L 18.40625 75.984375 
L 18.40625 0 
L 9.421875 0 
z
" id="DejaVuSans-108"/>
     <path d="M 8.5 21.578125 
L 8.5 54.6875 
L 17.484375 54.6875 
L 17.484375 21.921875 
Q 17.484375 14.15625 20.5 10.265625 
Q 23.53125 6.390625 29.59375 6.390625 
Q 36.859375 6.390625 41.078125 11.03125 
Q 45.3125 15.671875 45.3125 23.6875 
L 45.3125 54.6875 
L 54.296875 54.6875 
L 54.296875 0 
L 45.3125 0 
L 45.3125 8.40625 
Q 42.046875 3.421875 37.71875 1 
Q 33.40625 -1.421875 27.6875 -1.421875 
Q 18.265625 -1.421875 13.375 4.4375 
Q 8.5 10.296875 8.5 21.578125 
z
M 31.109375 56 
z
" id="DejaVuSans-117"/>
     <path d="M 37.109375 75.984375 
L 37.109375 68.5 
L 28.515625 68.5 
Q 23.6875 68.5 21.796875 66.546875 
Q 19.921875 64.59375 19.921875 59.515625 
L 19.921875 54.6875 
L 34.71875 54.6875 
L 34.71875 47.703125 
L 19.921875 47.703125 
L 19.921875 0 
L 10.890625 0 
L 10.890625 47.703125 
L 2.296875 47.703125 
L 2.296875 54.6875 
L 10.890625 54.6875 
L 10.890625 58.5 
Q 10.890625 67.625 15.140625 71.796875 
Q 19.390625 75.984375 28.609375 75.984375 
z
" id="DejaVuSans-102"/>
     <path d="M 46.6875 72.90625 
L 73.1875 45.703125 
L 63.375 45.703125 
L 41.890625 64.984375 
L 20.40625 45.703125 
L 10.59375 45.703125 
L 37.109375 72.90625 
z
" id="DejaVuSans-94"/>
     <path d="M 40.578125 39.3125 
Q 47.65625 37.796875 51.625 33 
Q 55.609375 28.21875 55.609375 21.1875 
Q 55.609375 10.40625 48.1875 4.484375 
Q 40.765625 -1.421875 27.09375 -1.421875 
Q 22.515625 -1.421875 17.65625 -0.515625 
Q 12.796875 0.390625 7.625 2.203125 
L 7.625 11.71875 
Q 11.71875 9.328125 16.59375 8.109375 
Q 21.484375 6.890625 26.8125 6.890625 
Q 36.078125 6.890625 40.9375 10.546875 
Q 45.796875 14.203125 45.796875 21.1875 
Q 45.796875 27.640625 41.28125 31.265625 
Q 36.765625 34.90625 28.71875 34.90625 
L 20.21875 34.90625 
L 20.21875 43.015625 
L 29.109375 43.015625 
Q 36.375 43.015625 40.234375 45.921875 
Q 44.09375 48.828125 44.09375 54.296875 
Q 44.09375 59.90625 40.109375 62.90625 
Q 36.140625 65.921875 28.71875 65.921875 
Q 24.65625 65.921875 20.015625 65.03125 
Q 15.375 64.15625 9.8125 62.3125 
L 9.8125 71.09375 
Q 15.4375 72.65625 20.34375 73.4375 
Q 25.25 74.21875 29.59375 74.21875 
Q 40.828125 74.21875 47.359375 69.109375 
Q 53.90625 64.015625 53.90625 55.328125 
Q 53.90625 49.265625 50.4375 45.09375 
Q 46.96875 40.921875 40.578125 39.3125 
z
" id="DejaVuSans-51"/>
    </defs>
    <g style="fill:#ff0000;" transform="translate(115.913438 28.56)scale(0.12 -0.12)">
     <use xlink:href="#DejaVuSans-65"/>
     <use x="68.408203" xlink:href="#DejaVuSans-32"/>
     <use x="100.195312" xlink:href="#DejaVuSans-71"/>
     <use x="177.685547" xlink:href="#DejaVuSans-114"/>
     <use x="218.798828" xlink:href="#DejaVuSans-97"/>
     <use x="280.078125" xlink:href="#DejaVuSans-112"/>
     <use x="343.554688" xlink:href="#DejaVuSans-104"/>
     <use x="406.933594" xlink:href="#DejaVuSans-32"/>
     <use x="438.720703" xlink:href="#DejaVuSans-116"/>
     <use x="477.929688" xlink:href="#DejaVuSans-111"/>
     <use x="539.111328" xlink:href="#DejaVuSans-32"/>
     <use x="570.898438" xlink:href="#DejaVuSans-115"/>
     <use x="622.998047" xlink:href="#DejaVuSans-104"/>
     <use x="686.376953" xlink:href="#DejaVuSans-111"/>
     <use x="747.558594" xlink:href="#DejaVuSans-119"/>
     <use x="829.345703" xlink:href="#DejaVuSans-32"/>
     <use x="861.132812" xlink:href="#DejaVuSans-116"/>
     <use x="900.341797" xlink:href="#DejaVuSans-104"/>
     <use x="963.720703" xlink:href="#DejaVuSans-101"/>
     <use x="1025.244141" xlink:href="#DejaVuSans-32"/>
     <use x="1057.03125" xlink:href="#DejaVuSans-118"/>
     <use x="1116.210938" xlink:href="#DejaVuSans-97"/>
     <use x="1177.490234" xlink:href="#DejaVuSans-108"/>
     <use x="1205.273438" xlink:href="#DejaVuSans-117"/>
     <use x="1268.652344" xlink:href="#DejaVuSans-101"/>
     <use x="1330.175781" xlink:href="#DejaVuSans-115"/>
     <use x="1382.275391" xlink:href="#DejaVuSans-32"/>
     <use x="1414.0625" xlink:href="#DejaVuSans-111"/>
     <use x="1475.244141" xlink:href="#DejaVuSans-102"/>
     <use x="1510.449219" xlink:href="#DejaVuSans-32"/>
     <use x="1542.236328" xlink:href="#DejaVuSans-88"/>
     <use x="1610.742188" xlink:href="#DejaVuSans-94"/>
     <use x="1694.53125" xlink:href="#DejaVuSans-51"/>
    </g>
   </g>
  </g>
 </g>
 <defs>
  <clipPath id="p1427b5d171">
   <rect height="217.44" width="334.8" x="54" y="34.56"/>
  </clipPath>
 </defs>
</svg>
